<svg width="1442" height="900" viewBox="0 0 1442 900" fill="none" xmlns="http://www.w3.org/2000/svg">
<path fill-rule="evenodd" clip-rule="evenodd" d="M0 898.264C48.0667 921.177 168.367 708.441 264.5 777.179C390.634 867.369 491.771 923.761 576.8 824.86C658.8 729.482 731 771.187 823 824.86C902.519 871.251 1104.11 907.73 1210.5 824.86C1308.1 748.84 1442 824.86 1442 824.86V0H1393.93C1345.87 0 1249.73 0 1153.6 0C1057.47 0 961.333 0 865.2 0C769.067 0 672.933 0 576.8 0C480.667 0 384.533 0 288.4 0C192.267 0 96.1333 0 48.0667 0H0V898.264Z" fill="#EA9253"/>
</svg>
